<svg id="Layer_1" data-name="Layer 1" xmlns="http://www.w3.org/2000/svg" viewBox="0 0 629.24 160" width="181" height="46"><defs><style>.cls-1{fill:#03d1b2;}.cls-2{fill:#fdfdfd;}.cls-3{fill:#030303;}</style></defs><path class="cls-1" d="M51,0a35.3,35.3,0,0,0,2.89,3.81q21.17,21.26,42.4,42.45c1.15,1.15,2.24,2.38,3.55,3.78L70.3,79.43l40.37,39.8c-2.47,1.81-3.83,2.87-5.27,3.83Q80.07,140,54.71,156.9A43.51,43.51,0,0,0,51,160H49a12,12,0,0,0-1.47-2.39Q25,135,2.39,112.47A12,12,0,0,0,0,111v-7a10.43,10.43,0,0,0,1.1-2.51C3.78,83.08,6.47,64.68,9,46.25c.56-4.06,1.8-7.39,4.94-10.4C24.86,25.35,35.45,14.54,46.12,3.8A34.78,34.78,0,0,0,49,0Z"/><path class="cls-2" d="M49,0a34.78,34.78,0,0,1-2.88,3.8C35.45,14.54,24.86,25.35,14,35.85c-3.14,3-4.38,6.34-4.94,10.4C6.47,64.68,3.78,83.08,1.1,101.49A10.43,10.43,0,0,1,0,104V0Z"/><path class="cls-2" d="M0,111a12,12,0,0,1,2.39,1.47Q25,135,47.53,157.61A12,12,0,0,1,49,160H0Z"/><path class="cls-3" d="M506.24,65.06C500.61,75,494.92,85,489.4,95c-1.81,3.3-4,5.79-8,5.77s-6.15-2.61-7.89-5.92C468,84.32,462.36,73.89,455.93,63.65V68.4q0,30.73,0,61.48c0,6.32-3.49,9.21-10.85,9.11-7.14-.11-10.14-2.79-10.14-9.19q0-48.23,0-96.47c0-4.94.59-9.34,5.92-11.47,5.05-2,12.27-.87,15.74,3.1a53.27,53.27,0,0,1,6.14,9C469,45.16,475,56.41,481.51,68.22c4-7.16,7.67-13.91,11.42-20.63,3.56-6.38,7.11-12.77,10.76-19.11,3.13-5.44,8-7.7,14.18-7.5,6.6.22,10.08,3.52,10.38,10.18.14,3.16.06,6.33.06,9.49q0,44.49,0,89c0,6.59-3.19,9.38-10.52,9.36s-10.46-2.84-10.47-9.5q0-29.73,0-59.48V65.23Z"/><path class="cls-3" d="M337.84,68c0,12.16.22,24.33,0,36.48-.45,20.48-10.28,32-30.54,34.72a62.46,62.46,0,0,1-21.25-.86c-16.3-3.52-24.81-13.39-25.41-31.26-.88-26.3-.43-52.64-.2-79,0-2,2.32-4.93,4.27-5.78a18.9,18.9,0,0,1,9.23-1c5.74.63,7.29,2.75,7.3,8.61q0,34.24,0,68.48c0,1.67,0,3.33,0,5,.72,14.66,11.18,21.77,25.16,17.11a13.47,13.47,0,0,0,9.51-10.61,50.57,50.57,0,0,0,.93-9.91c.08-23.33,0-46.65.05-70,0-6.49,2.78-8.92,10.18-9,7.66-.08,10.79,2.49,10.81,9q0,19,0,38Z"/><path class="cls-3" d="M377.79,120.69h36c3.35,0,6.75-.35,8.32,3.76,1.66,4.32,1.8,8.59-1,12.29a7.3,7.3,0,0,1-5.15,2.18q-25,.24-50,0c-7-.07-9.19-2.56-9.19-9.46q0-49.5,0-99c0-7,2.64-9.42,10.2-9.5,7.82-.08,10.79,2.52,10.79,9.53q0,42,0,84Z"/><path class="cls-3" d="M229.36,75.31c13-7.81,14.67-19.43,12.89-32.1-1.7-12.09-8.87-19.94-21.18-21-14.37-1.27-28.91-1-43.37-1-5.64,0-7.7,3-7.7,8.83q0,49.47,0,98.94c0,7.64,2.34,10,10.21,10q16.24.09,32.48,0c21.14-.09,32-10.37,33-31.52C246.39,94.09,245.1,81.5,229.36,75.31ZM191.27,39.57c6.55,0,13-.41,19.4.11,7.41.6,11.42,6,11.2,13.8S217.45,66.13,210,66.82c-.66.06-1.33.08-2,.08H191.27Zm31.94,72.18c-2.07,7.07-8.06,8.74-14.58,8.89-5.78.14-11.55,0-17.52,0V82.93c7.93.37,15.83.56,23.69,1.24a9,9,0,0,1,5.56,3C226.43,94.66,225.7,103.26,223.21,111.75Z"/><path class="cls-3" d="M628.75,127.23q-15.06-49.31-30.28-98.57C596.64,22.72,592,20,584.39,20s-12,2.73-13.93,8.84q-15.12,49-30.11,98.1c-1.79,5.84.62,9.23,7.79,11.35,6.71,2,10.48.38,12.21-5.31,2-6.51,3.82-13,5.73-19.61h36.86c1.95,6.68,3.79,13.22,5.77,19.72,1.68,5.52,5.38,7.12,11.8,5.26C627.74,136.29,630.45,132.79,628.75,127.23ZM570.44,96.75c4.6-16.25,9.11-32.19,14-49.44,4.89,17.25,9.41,33.22,14,49.44Z"/></svg>